<svg xmlns="http://www.w3.org/2000/svg" width="64" height="64" viewBox="0 0 64 64" fill="none">
  <rect width="64" height="64" rx="8" fill="none"/>
  <g transform="translate(6 6)" fill="none" stroke="#0b2540" stroke-width="1.8" stroke-linecap="round" stroke-linejoin="round">
    <path d="M22 2C18 2 14 6 12 9c-2 3-4 7-4 11 0 6 10 10 14 10s14-4 14-10c0-4-2-8-4-11-2-3-6-7-10-7z"/>
    <circle cx="14" cy="11" r="3" fill="#0b2540" />
    <path d="M6 34c5-6 10-6 14-6s9 0 14 6"/>
    <path d="M2 28c6-2 10-2 14 0"/>
  </g>
</svg>
